# xmcd CD database file
#
# Track frame offsets:
#	150
#	24170
#	43588
#	68012
#	92832
#	107752
#	120362
#	152019
#	189759
#	221274
#	241136
#	280148
#
# Disc length: 4231 seconds
#
# Revision: 0
# Processed by: cddbd v1.5.2PL0 Copyright (c) Steve Scherf et al.
# Submitted via: CDex 1.77
#
DISCID=8d10850c
DTITLE=Kenna Sara - Gumbo Live
DYEAR=2004
DGENRE=Jazz
TTITLE0=tipitina
TTITLE1=kansas city
TTITLE2=bring it on home to me
TTITLE3=won't you come home, bill bailey
TTITLE4=avalon
TTITLE5=java
TTITLE6=what a wonderful world
TTITLE7=what you gonna do?
TTITLE8=summertime
TTITLE9=never found a girl (to love me like you do)
TTITLE10=soul serenade
TTITLE11=hey pockey way
EXTD=YEAR: 2004
EXTT0=
EXTT1=
EXTT2=
EXTT3=
EXTT4=
EXTT5=
EXTT6=
EXTT7=
EXTT8=
EXTT9=
EXTT10=
EXTT11=
PLAYORDER=
